# xmcd
#
# Track frame offsets: 
#        150
#        4275
#        5917
#        22822
#        24192
#        47082
#        48835
#        69460
#        71552
#        83612
#        85575
#        105155
#        107257
#        122135
#        124047
#        138535
#        140835
#        155340
#        156912
#        178457
#        180492
#        199762
#        201740
#        220627
#        222302
#        238460
#        242932
#        259920
#        282207
#
# Disc length: 4098 seconds
#
# Revision: 1
# Processed by: cddbd v1.5.2PL0 Copyright (c) Steve Scherf et al.
# Submitted via: ExactAudioCopy v1.1
#
DISCID=a210001d
DTITLE=Lyfe Jennings - The Phoenix
DYEAR=2006
DGENRE=Rap
TTITLE0=Intro
TTITLE1=Interlude to Slow Down
TTITLE2=Lyfe Jennings Feat. Young Buck and Doc Black - Slow Down
TTITLE3=Interlude to Goodbye
TTITLE4=Goodbye
TTITLE5=Interlude to Let's Stay Together
TTITLE6=Let's Stay Together
TTITLE7=Interlude to Biggie Nigga
TTITLE8=Biggie Nigga
TTITLE9=Interlude to Ghetto Superman
TTITLE10=Ghetto Superman
TTITLE11=Interlude to S.E.X.
TTITLE12=Lyfe Jennings Feat. Lala Brown - S.E.X.
TTITLE13=Interlude to Down Here, Up there
TTITLE14=Down Here, Up there
TTITLE15=Interlude to The River
TTITLE16=The River
TTITLE17=Interlude to Still Here
TTITLE18=Lyfe Jennings Feat. Three 6 Mafia and Project Pat - Still Her
TTITLE18=e
TTITLE19=Interlude to More Than a Girl
TTITLE20=More Than a Girl
TTITLE21=Interlude to Stingy
TTITLE22=Stingy
TTITLE23=Interlude to Radio
TTITLE24=Radio
TTITLE25=Interlude to Keep Ya Head Up
TTITLE26=Keep Ya Head Up
TTITLE27=Interlude to I'll Always Love You
TTITLE28=Must Be Nice (Live)
EXTD=Rap should be a "freedb Genre" by now....\n\nAND Track 13 is the 
EXTD=single S.E.X. featuring Lala...awesome!
EXTT0=
EXTT1=
EXTT2=
EXTT3=
EXTT4=
EXTT5=
EXTT6=
EXTT7=
EXTT8=
EXTT9=
EXTT10=
EXTT11=
EXTT12=
EXTT13=
EXTT14=
EXTT15=
EXTT16=
EXTT17=
EXTT18=
EXTT19=
EXTT20=
EXTT21=
EXTT22=
EXTT23=
EXTT24=
EXTT25=
EXTT26=
EXTT27=
EXTT28=
PLAYORDER=
